<?xml version="1.0" encoding="utf-8"?><svg version="1.1" id="Layer_1" xmlns="http://www.w3.org/2000/svg" xmlns:xlink="http://www.w3.org/1999/xlink" x="0px" y="0px" viewBox="0 0 122.88 69.4" style="enable-background:new 0 0 122.88 69.4" xml:space="preserve"><style type="text/css">.st0{fill-rule:evenodd;clip-rule:evenodd;}</style><g><path class="st0" d="M7.85,0h107.18c4.32,0,7.85,3.53,7.85,7.85v53.69c0,4.32-3.53,7.85-7.85,7.85H7.85C3.53,69.4,0,65.87,0,61.55 V7.85C0,3.53,3.53,0,7.85,0L7.85,0z M89.48,14.99h18.06v7.86h-7.21v7.52h6.74v7.47h-6.74v8.66h7.95v7.86H89.48V14.99L89.48,14.99z M38.4,26.93H28.35v-2.91c0-1.36-0.13-2.23-0.39-2.61c-0.25-0.37-0.68-0.56-1.27-0.56c-0.65,0-1.14,0.25-1.47,0.76 c-0.33,0.5-0.5,1.25-0.5,2.27c0,1.31,0.19,2.3,0.57,2.96c0.37,0.66,1.39,1.46,3.06,2.41c4.8,2.71,7.83,4.94,9.07,6.68 c1.25,1.73,1.88,4.53,1.88,8.38c0,2.8-0.35,4.87-1.04,6.21c-0.69,1.33-2.03,2.44-4.02,3.33c-1.98,0.9-4.29,1.35-6.93,1.35 c-2.9,0-5.36-0.52-7.41-1.56c-2.04-1.04-3.38-2.36-4.02-3.96c-0.63-1.61-0.95-3.89-0.95-6.84v-2.58h10.05v4.79 c0,1.48,0.14,2.42,0.42,2.85c0.28,0.42,0.78,0.63,1.5,0.63c0.72,0,1.25-0.27,1.61-0.8c0.35-0.53,0.53-1.33,0.53-2.37 c0-2.31-0.33-3.83-1-4.54c-0.69-0.71-2.38-1.91-5.06-3.58c-2.68-1.68-4.46-2.91-5.33-3.67c-0.87-0.76-1.6-1.82-2.17-3.16 c-0.57-1.34-0.86-3.06-0.86-5.15c0-3.01,0.4-5.22,1.22-6.61c0.82-1.39,2.12-2.48,3.94-3.27c1.82-0.79,4-1.18,6.57-1.18 c2.81,0,5.19,0.43,7.18,1.29c1.97,0.86,3.28,1.94,3.92,3.25c0.64,1.3,0.97,3.52,0.97,6.64V26.93L38.4,26.93z M61.41,14.99 l6.19,39.37H56.54l-0.59-7.07h-3.9l-0.59,7.07h-11.2l5.49-39.37H61.41L61.41,14.99z M55.66,40.32c-0.52-4.46-1.06-9.99-1.64-16.58 c-1.07,7.57-1.75,13.09-2.04,16.58H55.66L55.66,40.32z M80.3,14.99V46.5h6.53v7.86H69.46V14.99H80.3L80.3,14.99z"/></g></svg>